<svg width="464" height="83" viewBox="0 0 464 83" fill="none" xmlns="http://www.w3.org/2000/svg">
<g clip-path="url(#clip0_682_431)">
<path d="M88.8792 51.1902V25.4574H99.7915C100.928 25.4468 102.051 25.7012 103.072 26.2005C104.053 26.6774 104.934 27.3388 105.665 28.1487C106.39 28.9599 106.967 29.8926 107.368 30.904C107.77 31.8885 107.978 32.9411 107.983 34.0044C107.984 35.0883 107.787 36.1634 107.404 37.1772C107.031 38.1816 106.479 39.1096 105.773 39.9158C105.065 40.72 104.202 41.3739 103.236 41.8389C102.218 42.3281 101.101 42.5757 99.9723 42.5625H93.8818V51.1902H88.8792ZM93.8873 38.1735H99.6885C100.132 38.1787 100.571 38.0809 100.97 37.8877C101.369 37.6945 101.718 37.4113 101.989 37.0603C102.605 36.3181 102.913 35.3032 102.913 34.0155C102.926 33.4173 102.832 32.8216 102.635 32.2566C102.462 31.7729 102.204 31.3242 101.873 30.9318C101.569 30.5782 101.188 30.2992 100.76 30.1164C100.355 29.9367 99.9173 29.842 99.4743 29.8381H93.8818L93.8873 38.1735Z" fill="white"/>
<path d="M111.458 51.1902V25.4574H122.84C123.977 25.4467 125.1 25.7011 126.121 26.2005C127.102 26.6774 127.982 27.3388 128.714 28.1487C129.439 28.9599 130.015 29.8926 130.417 30.904C130.82 31.892 131.028 32.9485 131.031 34.0155C131.049 35.6197 130.615 37.1965 129.779 38.566C128.996 39.8889 127.808 40.925 126.391 41.5216L132.264 51.1902H126.647L121.391 42.5625H116.46V51.1902H111.458ZM116.466 38.1735H122.737C123.187 38.1764 123.631 38.0643 124.026 37.8479C124.428 37.6272 124.779 37.3248 125.058 36.9601C125.359 36.5639 125.591 36.1198 125.745 35.6465C125.917 35.12 126.002 34.5693 125.998 34.0155C126.008 33.4466 125.914 32.8806 125.72 32.3457C125.541 31.8615 125.277 31.413 124.941 31.0209C124.632 30.6586 124.254 30.3623 123.828 30.1498C123.429 29.95 122.989 29.8443 122.543 29.8409H116.46L116.466 38.1735Z" fill="white"/>
<path d="M142.492 25.4575H146.913L156.701 51.1902H151.554L149.161 44.789H140.171L137.815 51.1902H132.667L142.492 25.4575ZM148.254 41.2656L144.701 31.1517L141.003 41.2684L148.254 41.2656Z" fill="white"/>
<path d="M176.459 48.3013C174.405 50.3571 172.012 51.3841 169.28 51.3822C167.636 51.3888 166.01 51.0384 164.514 50.3553C163.048 49.6957 161.73 48.7494 160.635 47.5721C159.512 46.3554 158.625 44.9396 158.02 43.3975C157.37 41.74 157.044 39.9733 157.06 38.193C157.046 34.8111 158.343 31.5554 160.677 29.1089C161.809 27.9344 163.157 26.9895 164.648 26.3258C166.21 25.6287 167.904 25.2766 169.614 25.2933C172.025 25.2933 174.097 25.8007 175.83 26.8156C177.5 27.7716 178.854 29.1957 179.725 30.9124L175.986 33.6565C175.382 32.4291 174.43 31.4075 173.248 30.7203C172.088 30.0447 170.769 29.6921 169.428 29.6989C168.39 29.6878 167.365 29.9244 166.437 30.3892C165.537 30.8404 164.746 31.4802 164.116 32.265C163.462 33.0882 162.959 34.0211 162.63 35.0203C162.276 36.0843 162.098 37.1994 162.104 38.3211C162.093 39.482 162.289 40.6356 162.683 41.7276C163.041 42.7311 163.582 43.6596 164.277 44.4662C164.947 45.235 165.767 45.8583 166.687 46.2975C167.63 46.744 168.662 46.9705 169.706 46.9599C172.195 46.9599 174.442 45.7872 176.447 43.442V41.6302H171.275V37.9676H180.59V51.1902H176.459V48.3013Z" fill="white"/>
<path d="M203.358 29.8464H195.128V51.1902H190.162V29.8464H181.934V25.4575H203.358V29.8464Z" fill="white"/>
<path d="M224.415 46.8151V51.1902H206.544V25.4575H224.089V29.8464H211.547V36.0445H222.398V40.105H211.547V46.8123L224.415 46.8151Z" fill="white"/>
<path d="M226.229 38.1485C226.233 36.5571 226.521 34.9792 227.08 33.4895C227.643 31.9462 228.504 30.529 229.614 29.3188C230.725 28.1087 232.063 27.1295 233.552 26.4371C235.234 25.668 237.067 25.2875 238.916 25.3239C241.285 25.3239 243.333 25.8434 245.06 26.8824C246.709 27.8384 248.049 29.2477 248.922 30.943L245.079 33.5786C244.774 32.9032 244.358 32.2841 243.847 31.7473C243.393 31.2748 242.867 30.8775 242.289 30.57C241.74 30.2825 241.155 30.0692 240.55 29.9355C239.967 29.8048 239.372 29.7376 238.775 29.7351C237.634 29.7078 236.506 29.9702 235.494 30.4977C234.589 30.9836 233.798 31.6573 233.174 32.4737C232.55 33.302 232.079 34.2351 231.783 35.229C231.474 36.2203 231.316 37.2522 231.312 38.2904C231.313 39.4076 231.501 40.5168 231.869 41.5717C232.208 42.586 232.73 43.5294 233.41 44.3548C234.071 45.149 234.885 45.8021 235.803 46.2752C236.749 46.7629 237.799 47.0123 238.864 47.0016C239.474 46.9979 240.081 46.9251 240.675 46.7845C241.302 46.6395 241.906 46.4071 242.469 46.0943C243.052 45.7694 243.584 45.3606 244.047 44.8808C244.545 44.3625 244.939 43.7531 245.207 43.0857L249.281 45.4375C248.873 46.4001 248.275 47.2702 247.522 47.9952C246.756 48.7357 245.89 49.3644 244.949 49.8626C243.981 50.3755 242.952 50.7654 241.888 51.0232C240.847 51.2815 239.78 51.4142 238.708 51.4184C236.96 51.4391 235.232 51.0411 233.669 50.2578C232.177 49.5083 230.841 48.4805 229.735 47.2298C228.632 45.98 227.76 44.5438 227.161 42.9883C226.55 41.4476 226.234 39.8059 226.229 38.1485Z" fill="white"/>
<path d="M274.296 25.4575V51.1902H269.33V40.2163H257.644V51.1902H252.636V25.4575H257.644V35.8635H269.33V25.4575H274.296Z" fill="white"/>
<path d="M284.663 34.703V51.1902H279.655V25.4575H283.534L296.947 42.3538V25.4936H301.956V51.1902H297.896L284.663 34.703Z" fill="white"/>
<path d="M318.302 51.3822C316.529 51.4052 314.775 51.0245 313.171 50.269C311.674 49.5599 310.331 48.5621 309.22 47.3328C307.008 44.8541 305.778 41.652 305.762 38.3294C305.757 36.6385 306.083 34.9631 306.722 33.3977C307.342 31.8562 308.238 30.4413 309.368 29.223C310.501 28.0077 311.862 27.0279 313.374 26.3397C314.956 25.6196 316.676 25.2548 318.413 25.271C320.177 25.2484 321.922 25.6392 323.508 26.4121C325.002 27.1426 326.338 28.1591 327.442 29.4039C328.529 30.645 329.385 32.0712 329.968 33.6148C330.564 35.1406 330.871 36.7637 330.875 38.4017C330.881 40.0847 330.561 41.7529 329.932 43.3139C329.324 44.8404 328.439 46.2415 327.322 47.4469C326.195 48.6547 324.84 49.628 323.335 50.3107C321.756 51.0312 320.038 51.397 318.302 51.3822ZM310.834 38.3294C310.831 39.4256 311.002 40.5153 311.34 41.5578C311.658 42.5581 312.156 43.4919 312.81 44.3131C313.452 45.1117 314.255 45.766 315.166 46.2334C316.161 46.714 317.253 46.9623 318.358 46.9594C319.463 46.9565 320.553 46.7026 321.546 46.2167C322.463 45.7328 323.266 45.0592 323.903 44.2407C324.549 43.4073 325.04 42.4646 325.352 41.4576C325.677 40.4437 325.842 39.3856 325.842 38.321C325.844 37.2234 325.667 36.1328 325.316 35.0926C324.987 34.0936 324.484 33.1608 323.83 32.3373C323.191 31.5406 322.387 30.8913 321.474 30.4337C320.478 29.9619 319.389 29.7202 318.288 29.7264C317.187 29.7327 316.101 29.9868 315.111 30.4698C314.194 30.9418 313.39 31.6064 312.754 32.418C312.117 33.2441 311.631 34.1771 311.321 35.1733C310.996 36.1936 310.831 37.2584 310.834 38.3294Z" fill="white"/>
<path d="M334.72 51.1902V25.4575H339.729V46.8151H352.85V51.1902H334.72Z" fill="white"/>
<path d="M365.24 51.3822C363.467 51.4052 361.713 51.0245 360.109 50.269C358.612 49.5599 357.269 48.5621 356.158 47.3328C353.943 44.8523 352.712 41.6469 352.697 38.321C352.692 36.6302 353.018 34.9547 353.657 33.3894C354.277 31.8479 355.174 30.433 356.303 29.2147C357.436 27.9993 358.797 27.0195 360.31 26.3314C361.891 25.6113 363.611 25.2465 365.348 25.2626C367.112 25.2401 368.857 25.6309 370.443 26.4037C371.937 27.1343 373.274 28.1507 374.377 29.3956C375.468 30.6341 376.327 32.0585 376.915 33.6009C377.51 35.1267 377.818 36.7498 377.822 38.3878C377.828 40.0708 377.507 41.739 376.878 43.3C376.27 44.8265 375.385 46.2276 374.269 47.433C373.141 48.6408 371.786 49.6141 370.281 50.2968C368.701 51.0233 366.98 51.3938 365.24 51.3822ZM357.772 38.3294C357.769 39.4256 357.94 40.5153 358.278 41.5578C358.596 42.5581 359.094 43.4919 359.748 44.3131C360.39 45.1117 361.192 45.766 362.104 46.2335C363.099 46.7141 364.191 46.9623 365.296 46.9594C366.401 46.9565 367.491 46.7026 368.484 46.2168C369.401 45.7328 370.204 45.0592 370.841 44.2407C371.487 43.4073 371.978 42.4646 372.29 41.4576C372.615 40.4437 372.78 39.3856 372.78 38.321C372.783 37.2274 372.607 36.1407 372.26 35.1038C371.931 34.1048 371.428 33.1719 370.774 32.3485C370.134 31.5517 369.331 30.9024 368.417 30.4448C367.422 29.973 366.333 29.7313 365.232 29.7376C364.13 29.7438 363.044 29.9979 362.054 30.481C361.137 30.953 360.334 31.6176 359.697 32.4292C359.06 33.2553 358.575 34.1883 358.265 35.1845C357.938 36.2009 357.772 37.2619 357.772 38.3294Z" fill="white"/>
<path d="M399.526 48.3013C397.473 50.3571 395.08 51.3841 392.348 51.3822C390.705 51.3923 389.078 51.0457 387.582 50.3664C386.116 49.7068 384.798 48.7605 383.703 47.5833C382.582 46.366 381.697 44.9503 381.093 43.4086C380.444 41.7512 380.118 39.9844 380.134 38.2041C380.12 34.8222 381.416 31.5665 383.751 29.12C384.883 27.9455 386.231 27.0006 387.721 26.3369C389.283 25.6399 390.977 25.2877 392.687 25.3044C395.099 25.3044 397.171 25.8118 398.903 26.8267C400.574 27.7827 401.928 29.2069 402.798 30.9235L399.062 33.6565C398.459 32.4291 397.506 31.4075 396.324 30.7203C395.162 30.0457 393.841 29.6949 392.498 29.7045C391.462 29.6921 390.438 29.9268 389.51 30.3891C388.61 30.8428 387.818 31.4855 387.19 32.2733C386.535 33.0965 386.032 34.0295 385.704 35.0286C385.349 36.0927 385.171 37.2077 385.178 38.3294C385.168 39.4847 385.364 40.6325 385.757 41.7192C386.115 42.7227 386.655 43.6512 387.351 44.4578C388.02 45.2266 388.841 45.8499 389.76 46.2891C390.705 46.7398 391.741 46.9692 392.788 46.9598C395.277 46.9598 397.524 45.7872 399.529 43.442V41.6302H394.346V37.9676H403.661V51.1902H399.526V48.3013Z" fill="white"/>
<path d="M407.943 51.1902V25.4575H412.951V51.1902H407.943Z" fill="white"/>
<path d="M436.181 46.8151V51.1902H418.31V25.4575H435.855V29.8464H423.313V36.0445H434.164V40.105H423.313V46.8123L436.181 46.8151Z" fill="white"/>
<path d="M454.895 32.201C454.609 31.9428 454.3 31.7118 453.971 31.5107C453.452 31.183 452.906 30.8982 452.341 30.6591C451.665 30.3698 450.969 30.1334 450.257 29.9522C449.51 29.7632 448.743 29.6697 447.972 29.6739C446.594 29.6739 445.568 29.9281 444.892 30.4365C444.561 30.6825 444.294 31.0065 444.117 31.3797C443.94 31.7529 443.858 32.164 443.877 32.5767C443.858 33.0478 443.992 33.5122 444.258 33.9014C444.556 34.2884 444.936 34.604 445.371 34.8254C445.954 35.132 446.567 35.3755 447.202 35.5518C447.944 35.7689 448.795 35.999 449.756 36.2421C451.012 36.5816 452.153 36.9443 453.181 37.3303C454.123 37.6697 455.005 38.1593 455.791 38.7803C456.49 39.3429 457.054 40.0552 457.441 40.8648C457.854 41.8067 458.051 42.8288 458.019 43.8567C458.054 45.081 457.787 46.295 457.24 47.3912C456.744 48.343 456.022 49.1582 455.137 49.7652C454.212 50.3891 453.18 50.8381 452.093 51.09C450.908 51.3727 449.694 51.5128 448.476 51.5075C446.535 51.5058 444.604 51.2121 442.75 50.6364C440.937 50.0916 439.224 49.259 437.675 48.1705L439.887 43.8567C440.249 44.1809 440.643 44.4663 441.064 44.7083C441.711 45.1013 442.383 45.4527 443.076 45.7603C443.906 46.1308 444.767 46.4279 445.649 46.6481C446.597 46.8904 447.571 47.0119 448.548 47.0099C451.303 47.0099 452.68 46.1277 452.68 44.3632C452.695 43.8512 452.528 43.3505 452.21 42.9494C451.84 42.5196 451.383 42.1734 450.869 41.9335C450.192 41.6065 449.489 41.3392 448.765 41.1348C447.944 40.8936 447.026 40.6273 446.011 40.336C444.916 40.0432 443.844 39.6711 442.803 39.2228C441.978 38.8749 441.213 38.3976 440.538 37.809C439.95 37.2896 439.486 36.646 439.178 35.9248C438.856 35.1113 438.702 34.2415 438.724 33.3671C438.702 32.1667 438.95 30.9767 439.45 29.8854C439.914 28.8942 440.603 28.0251 441.462 27.3472C442.355 26.652 443.369 26.1292 444.453 25.8053C445.64 25.4474 446.874 25.2701 448.114 25.2793C449.821 25.2602 451.518 25.5487 453.123 26.131C454.527 26.6396 455.866 27.3152 457.11 28.1432L454.895 32.201Z" fill="white"/>
<path d="M96.4609 62.4618C96.4712 62.8065 96.3964 63.1483 96.243 63.4571C96.0897 63.7658 95.8625 64.032 95.5817 64.2319C95.2939 64.4389 94.9717 64.5934 94.6302 64.6883C94.2555 64.7944 93.8677 64.8469 93.4783 64.8442H89.0182V55.6014H93.9652C94.2683 55.5976 94.5676 55.6693 94.836 55.8102C95.0913 55.9443 95.3173 56.1278 95.501 56.3501C95.6852 56.5747 95.8283 56.83 95.9239 57.1043C96.0486 57.4508 96.0963 57.8202 96.0636 58.187C96.0309 58.5537 95.9187 58.9089 95.7347 59.2279C95.5103 59.622 95.1621 59.9311 94.7442 60.1073C95.2419 60.2422 95.6823 60.5353 95.9991 60.9423C96.3189 61.3827 96.4815 61.9179 96.4609 62.4618ZM90.81 57.1349V59.4672H93.2056C93.3489 59.4699 93.4912 59.4437 93.6241 59.3902C93.757 59.3366 93.8777 59.2568 93.9791 59.1555C94.0886 59.0418 94.1735 58.9068 94.2286 58.7588C94.2836 58.6109 94.3076 58.4531 94.2991 58.2955C94.3127 57.99 94.2081 57.6909 94.0069 57.4606C93.9156 57.36 93.8037 57.2801 93.679 57.2263C93.5542 57.1726 93.4193 57.1462 93.2835 57.1489L90.81 57.1349ZM94.6496 62.1223C94.6505 61.9599 94.6222 61.7988 94.5662 61.6464C94.5138 61.5015 94.4366 61.3668 94.338 61.2484C94.2454 61.133 94.1298 61.0382 93.9986 60.9701C93.8654 60.9044 93.7186 60.8711 93.5701 60.8727H90.81V63.3079H93.4699C93.6285 63.309 93.7857 63.2777 93.9318 63.2161C94.071 63.1576 94.1969 63.0715 94.3018 62.9628C94.52 62.733 94.6415 62.4281 94.6413 62.1112L94.6496 62.1223Z" fill="white"/>
<path d="M106.981 63.3218C107.356 63.334 107.727 63.2436 108.055 63.0602C108.339 62.8932 108.581 62.6615 108.759 62.3839C108.943 62.0909 109.071 61.7663 109.137 61.4265C109.212 61.0601 109.249 60.6872 109.249 60.3133V55.6014H111.032V60.316C111.036 60.9182 110.959 61.5182 110.804 62.1C110.665 62.629 110.422 63.1248 110.089 63.5584C109.753 63.9837 109.321 64.3232 108.828 64.5492C108.251 64.8058 107.624 64.9303 106.992 64.9138C106.344 64.9326 105.7 64.8012 105.111 64.5297C104.62 64.2934 104.19 63.9456 103.856 63.5139C103.528 63.0777 103.292 62.5798 103.161 62.0499C103.017 61.4843 102.945 60.9026 102.947 60.3188V55.6014H104.744V60.316C104.744 60.6899 104.781 61.0629 104.855 61.4293C104.921 61.7692 105.049 62.0939 105.234 62.3867C105.416 62.6831 105.675 62.9251 105.983 63.0876C106.29 63.2501 106.636 63.3271 106.984 63.3107L106.981 63.3218Z" fill="white"/>
<path d="M118.046 64.8442V55.6014H119.844V64.847L118.046 64.8442Z" fill="white"/>
<path d="M126.975 64.8442V55.6014H128.772V63.2689H133.485V64.8442H126.975Z" fill="white"/>
<path d="M139.785 64.8442V55.6015H143.143C143.822 55.5871 144.497 55.7112 145.127 55.966C145.663 56.1851 146.145 56.5181 146.539 56.9419C146.933 57.3658 147.231 57.8704 147.411 58.4208C147.602 58.9978 147.696 59.6025 147.689 60.2103C147.698 60.8598 147.589 61.5056 147.369 62.1167C147.171 62.6628 146.858 63.16 146.451 63.5751C146.043 63.985 145.552 64.3045 145.013 64.513C144.412 64.7414 143.774 64.8538 143.132 64.8442H139.785ZM145.889 60.2075C145.893 59.7922 145.831 59.3789 145.705 58.9829C145.594 58.6291 145.413 58.3015 145.171 58.02C144.934 57.7483 144.638 57.5342 144.306 57.3938C143.936 57.2416 143.54 57.1668 143.14 57.1739H141.579V63.2689H143.14C143.545 63.2766 143.946 63.1969 144.317 63.0352C144.649 62.8873 144.942 62.6666 145.177 62.3895C145.413 62.1029 145.592 61.773 145.703 61.4182C145.828 61.0279 145.891 60.6202 145.889 60.2103V60.2075Z" fill="white"/>
<path d="M154.311 64.8442V55.6014H156.109V64.847L154.311 64.8442Z" fill="white"/>
<path d="M165.037 58.9217V64.847H163.24V55.6014H164.631L169.447 61.6686V55.6126H171.245V64.8442H169.789L165.037 58.9217Z" fill="white"/>
<path d="M184.8 63.8033C184.469 64.1551 184.07 64.4353 183.627 64.6268C183.184 64.8182 182.706 64.9169 182.223 64.9166C181.633 64.9202 181.05 64.7958 180.512 64.552C179.986 64.3143 179.513 63.9736 179.121 63.55C178.718 63.1119 178.4 62.6022 178.184 62.0472C177.951 61.4524 177.833 60.8185 177.839 60.1797C177.833 58.9656 178.298 57.7966 179.135 56.9179C179.541 56.4954 180.025 56.1552 180.56 55.9159C181.121 55.6659 181.729 55.5396 182.343 55.5458C183.122 55.5278 183.891 55.7201 184.569 56.1024C185.166 56.4471 185.65 56.9588 185.96 57.5747L184.619 58.5655C184.403 58.1246 184.061 57.7576 183.637 57.5107C183.22 57.2685 182.745 57.1427 182.262 57.1461C181.89 57.142 181.522 57.2269 181.188 57.3938C180.865 57.5562 180.58 57.7869 180.354 58.0701C180.118 58.3661 179.938 58.7016 179.82 59.0609C179.692 59.4431 179.628 59.8436 179.63 60.2465C179.627 60.661 179.698 61.0729 179.839 61.4627C179.968 61.8227 180.162 62.1558 180.412 62.4451C180.653 62.7209 180.947 62.9444 181.278 63.102C181.617 63.2643 181.989 63.3471 182.365 63.3441C183.259 63.3441 184.066 62.9229 184.786 62.0806V61.4293H182.925V60.0962H186.263V64.8498H184.78L184.8 63.8033Z" fill="white"/>
<path d="M201.358 64.8442V55.6014H205.275C205.684 55.6013 206.087 55.6966 206.452 55.8798C206.804 56.0527 207.12 56.2918 207.381 56.5839C207.642 56.8755 207.849 57.2109 207.994 57.5747C208.138 57.928 208.214 58.306 208.216 58.6879C208.216 59.0769 208.145 59.4626 208.007 59.8262C207.873 60.1867 207.674 60.5196 207.42 60.8087C207.166 61.0972 206.857 61.3319 206.511 61.4989C206.145 61.675 205.745 61.7645 205.339 61.7605H203.152V64.8609L201.358 64.8442ZM203.155 60.1685H205.239C205.4 60.1713 205.559 60.1362 205.704 60.0661C205.849 59.996 205.976 59.8929 206.074 59.765C206.309 59.4507 206.426 59.0634 206.405 58.6712C206.408 58.4562 206.374 58.2422 206.302 58.0395C206.239 57.8654 206.144 57.7041 206.024 57.5635C205.915 57.437 205.779 57.337 205.626 57.2713C205.48 57.2076 205.323 57.1745 205.164 57.1739H203.158L203.155 60.1685Z" fill="white"/>
<path d="M214.34 64.8442V55.6014H218.427C218.836 55.6014 219.239 55.6967 219.604 55.8798C219.956 56.0527 220.272 56.2918 220.534 56.5839C220.794 56.8755 221.002 57.2109 221.146 57.5747C221.29 57.9282 221.364 58.3062 221.365 58.6879C221.373 59.2638 221.217 59.83 220.918 60.3216C220.636 60.7961 220.21 61.1678 219.702 61.382L221.811 64.8581H219.788L217.901 61.7577H216.132V64.8581L214.34 64.8442ZM216.137 60.1685H218.397C218.558 60.1694 218.717 60.1292 218.859 60.0516C219.004 59.9731 219.131 59.865 219.231 59.7344C219.34 59.5909 219.424 59.43 219.479 59.2585C219.541 59.069 219.572 58.8706 219.571 58.6712C219.573 58.4671 219.539 58.2643 219.468 58.0728C219.404 57.899 219.31 57.7379 219.19 57.5969C219.078 57.4668 218.94 57.3608 218.786 57.2852C218.643 57.2134 218.485 57.1753 218.324 57.1739H216.151L216.137 60.1685Z" fill="white"/>
<path d="M230.639 55.6014H232.228L235.742 64.847H233.894L233.035 62.5425H229.804L228.97 64.847H227.122L230.639 55.6014ZM232.709 61.279L231.435 57.647L230.108 61.279H232.709Z" fill="white"/>
<path d="M248.087 63.8033C247.756 64.1551 247.357 64.4353 246.914 64.6268C246.471 64.8182 245.993 64.9169 245.51 64.9166C244.92 64.9202 244.337 64.7958 243.799 64.552C243.273 64.3143 242.8 63.9736 242.408 63.55C242.005 63.1119 241.687 62.6022 241.471 62.0472C241.238 61.4524 241.12 60.8185 241.126 60.1797C241.12 58.9656 241.585 57.7966 242.422 56.9179C242.828 56.4954 243.312 56.1552 243.847 55.9159C244.408 55.6659 245.016 55.5396 245.63 55.5458C246.409 55.5278 247.178 55.7201 247.856 56.1024C248.453 56.4471 248.937 56.9588 249.247 57.5747L247.906 58.5655C247.69 58.1246 247.348 57.7576 246.924 57.5107C246.507 57.2685 246.032 57.1427 245.549 57.1461C245.177 57.142 244.809 57.2269 244.475 57.3938C244.152 57.5562 243.867 57.7869 243.641 58.0701C243.405 58.3661 243.225 58.7016 243.107 59.0609C242.979 59.4431 242.915 59.8436 242.917 60.2465C242.914 60.661 242.985 61.0729 243.126 61.4627C243.255 61.8227 243.449 62.1558 243.699 62.4451C243.94 62.7209 244.234 62.9444 244.564 63.102C244.904 63.2643 245.276 63.3471 245.652 63.3441C246.546 63.3441 247.353 62.9229 248.073 62.0806V61.4293H246.22V60.0962H249.559V64.8498H248.076L248.087 63.8033Z" fill="white"/>
<path d="M263.849 64.8442V58.7213L261.467 63.2801H260.491L258.109 58.7213V64.8442H256.312V55.6014H258.237L260.972 60.8615L263.732 55.6014H265.646V64.847L263.849 64.8442Z" fill="white"/>
<path d="M275.39 55.6014H276.979L280.493 64.847H278.645L277.786 62.5425H274.558L273.723 64.847H271.876L275.39 55.6014ZM277.46 61.279L276.186 57.647L274.859 61.279H277.46Z" fill="white"/>
<path d="M292.76 57.1767H289.805V64.847H288.022V57.1767H285.067V55.6014H292.76V57.1767Z" fill="white"/>
<path d="M299.112 64.8442V55.6014H300.909V64.847L299.112 64.8442Z" fill="white"/>
<path d="M307.481 60.1574C307.483 59.587 307.587 59.0215 307.787 58.4875C307.989 57.9334 308.298 57.4244 308.697 56.9898C309.096 56.5553 309.576 56.2036 310.111 55.9549C310.714 55.6775 311.372 55.5396 312.036 55.5514C312.809 55.5305 313.572 55.7231 314.242 56.108C314.836 56.4507 315.319 56.9569 315.634 57.5663L314.242 58.5182C314.133 58.2759 313.983 58.0538 313.8 57.8613C313.638 57.6919 313.45 57.5491 313.244 57.4383C313.046 57.3347 312.835 57.2579 312.618 57.2101C312.408 57.1631 312.195 57.1388 311.98 57.1377C311.571 57.1295 311.166 57.2253 310.803 57.416C310.478 57.5904 310.193 57.8324 309.969 58.1257C309.744 58.4235 309.574 58.759 309.468 59.1165C309.356 59.4769 309.298 59.8523 309.298 60.2298C309.297 60.6303 309.363 61.0282 309.493 61.407C309.616 61.7705 309.805 62.1082 310.049 62.4034C310.287 62.6889 310.579 62.9236 310.909 63.0936C311.253 63.2711 311.635 63.3609 312.022 63.3552C312.241 63.354 312.46 63.3278 312.673 63.2773C312.899 63.2254 313.116 63.142 313.319 63.0296C313.524 62.9118 313.712 62.7646 313.875 62.5926C314.054 62.4062 314.196 62.187 314.293 61.947L315.764 62.7819C315.618 63.1275 315.403 63.4399 315.133 63.7003C314.858 63.9663 314.547 64.1921 314.209 64.3711C313.857 64.5565 313.483 64.6967 313.096 64.7885C312.721 64.8816 312.336 64.9293 311.95 64.9305C311.322 64.9376 310.702 64.7944 310.141 64.513C309.605 64.2437 309.125 63.8743 308.728 63.4248C308.332 62.9762 308.019 62.4607 307.804 61.9024C307.588 61.3462 307.478 60.7542 307.481 60.1574Z" fill="white"/>
<path d="M344.347 58.0228C344.245 57.9302 344.134 57.8473 344.016 57.7751C343.829 57.6572 343.633 57.5548 343.429 57.4689C343.187 57.3652 342.936 57.2806 342.681 57.2157C342.412 57.1467 342.137 57.1121 341.86 57.1127C341.469 57.0844 341.079 57.1819 340.747 57.391C340.628 57.4793 340.532 57.5956 340.469 57.7296C340.405 57.8635 340.376 58.011 340.382 58.1591C340.376 58.3283 340.423 58.4952 340.519 58.6351C340.625 58.7736 340.761 58.8867 340.917 58.9662C341.126 59.0764 341.346 59.1641 341.573 59.2279C341.838 59.3058 342.145 59.3884 342.491 59.4756C342.942 59.598 343.352 59.7279 343.721 59.8652C344.06 59.987 344.376 60.1628 344.659 60.3856C344.91 60.5877 345.112 60.8435 345.251 61.1343C345.4 61.4725 345.471 61.8394 345.46 62.2086C345.473 62.6481 345.378 63.084 345.182 63.4777C345.004 63.819 344.745 64.1114 344.428 64.3293C344.096 64.5535 343.725 64.7148 343.334 64.8052C342.91 64.9066 342.475 64.9571 342.038 64.9555C341.341 64.9553 340.648 64.8502 339.982 64.6438C339.331 64.4484 338.715 64.1495 338.159 63.7588L338.952 62.2086C339.082 62.3251 339.224 62.4277 339.375 62.5147C339.608 62.6562 339.85 62.7826 340.099 62.8932C340.397 63.0267 340.706 63.1338 341.022 63.2133C341.362 63.3005 341.712 63.3444 342.063 63.3441C343.052 63.3441 343.546 63.0268 343.546 62.3923C343.551 62.2087 343.49 62.0294 343.376 61.8857C343.243 61.7315 343.079 61.6072 342.895 61.5211C342.652 61.4067 342.4 61.3136 342.141 61.2428L341.15 60.9645C340.757 60.8599 340.372 60.7269 339.998 60.5665C339.702 60.4419 339.428 60.2709 339.186 60.06C338.976 59.8734 338.809 59.6424 338.699 59.3837C338.584 59.0915 338.53 58.7791 338.538 58.4653C338.53 58.0344 338.619 57.6073 338.799 57.2157C338.966 56.8601 339.214 56.5484 339.523 56.3056C339.843 56.0548 340.207 55.8661 340.597 55.749C341.023 55.6203 341.467 55.5565 341.913 55.5597C342.525 55.553 343.134 55.6568 343.71 55.8658C344.215 56.0487 344.696 56.2917 345.143 56.5895L344.347 58.0228Z" fill="white"/>
<path d="M355.972 64.911C355.336 64.9196 354.706 64.7835 354.13 64.513C353.592 64.2583 353.11 63.8998 352.711 63.4582C351.915 62.5675 351.473 61.4161 351.467 60.2214C351.465 59.6145 351.583 59.0132 351.812 58.4514C352.035 57.8984 352.358 57.3909 352.764 56.954C353.171 56.5177 353.659 56.1659 354.202 55.9187C354.77 55.6602 355.387 55.5291 356.011 55.5347C356.644 55.5265 357.27 55.6666 357.839 55.9438C358.376 56.206 358.856 56.571 359.252 57.0181C359.644 57.463 359.954 57.9749 360.165 58.5293C360.379 59.0775 360.489 59.6607 360.49 60.2493C360.492 60.8538 360.377 61.4531 360.151 62.0138C359.932 62.5617 359.614 63.0646 359.213 63.4972C358.808 63.9316 358.321 64.2816 357.78 64.5269C357.213 64.7856 356.595 64.9167 355.972 64.911ZM353.29 60.2242C353.288 60.6173 353.349 61.008 353.47 61.382C353.585 61.7418 353.764 62.0776 353.999 62.3728C354.226 62.6585 354.511 62.8936 354.834 63.063C355.191 63.2363 355.582 63.3264 355.979 63.3264C356.375 63.3264 356.767 63.2363 357.124 63.063C357.449 62.8877 357.733 62.6459 357.958 62.3533C358.19 62.0549 358.366 61.7175 358.479 61.3569C358.594 60.997 358.653 60.6216 358.654 60.2437C358.654 59.85 358.59 59.459 358.465 59.0859C358.347 58.7267 358.166 58.3912 357.931 58.0951C357.704 57.8099 357.42 57.5765 357.096 57.4105C356.739 57.2392 356.349 57.1503 355.954 57.1503C355.558 57.1503 355.168 57.2392 354.812 57.4105C354.486 57.5826 354.201 57.8228 353.977 58.1146C353.748 58.4117 353.574 58.7472 353.462 59.1054C353.348 59.4673 353.289 59.8446 353.29 60.2242Z" fill="white"/>
<path d="M366.934 64.8442V55.6014H368.732V63.2689H373.445V64.8442H366.934Z" fill="white"/>
<path d="M383.075 63.3218C383.45 63.334 383.821 63.2436 384.149 63.0602C384.433 62.8932 384.674 62.6615 384.853 62.3839C385.037 62.0909 385.165 61.7663 385.231 61.4265C385.305 61.0601 385.343 60.6872 385.342 60.3133V55.6014H387.126V60.316C387.13 60.9182 387.053 61.5182 386.898 62.1C386.759 62.629 386.516 63.1248 386.182 63.5584C385.847 63.9833 385.416 64.3228 384.925 64.5492C384.347 64.8058 383.72 64.9303 383.089 64.9138C382.44 64.9326 381.797 64.8012 381.208 64.5297C380.716 64.2934 380.286 63.9456 379.953 63.5139C379.625 63.0777 379.388 62.5798 379.257 62.0499C379.113 61.4843 379.041 60.9026 379.043 60.3188V55.6014H380.84V60.316C380.84 60.6899 380.877 61.0629 380.952 61.4293C381.017 61.7692 381.146 62.0939 381.33 62.3867C381.513 62.6831 381.771 62.9251 382.079 63.0876C382.387 63.2501 382.733 63.3271 383.08 63.3107L383.075 63.3218Z" fill="white"/>
<path d="M401.051 57.1767H398.096V64.847H396.313V57.1767H393.358V55.6014H401.051V57.1767Z" fill="white"/>
<path d="M407.403 64.8442V55.6014H409.201V64.847L407.403 64.8442Z" fill="white"/>
<path d="M420.277 64.911C419.641 64.9196 419.011 64.7835 418.435 64.513C417.897 64.2583 417.415 63.8998 417.016 63.4582C416.22 62.5675 415.778 61.4161 415.772 60.2214C415.771 59.6145 415.888 59.0132 416.117 58.4514C416.341 57.8984 416.663 57.3909 417.069 56.954C417.476 56.5177 417.965 56.1659 418.507 55.9187C419.075 55.6602 419.692 55.5291 420.316 55.5347C420.949 55.5265 421.575 55.6666 422.144 55.9438C422.681 56.206 423.161 56.571 423.557 57.0181C423.95 57.463 424.259 57.9749 424.47 58.5293C424.684 59.0775 424.794 59.6607 424.796 60.2493C424.798 60.8538 424.682 61.4531 424.456 62.0138C424.238 62.5617 423.92 63.0646 423.518 63.4972C423.113 63.9316 422.626 64.2816 422.086 64.5269C421.518 64.7856 420.901 64.9167 420.277 64.911ZM417.595 60.2242C417.594 60.6173 417.655 61.008 417.776 61.382C417.89 61.7418 418.069 62.0776 418.304 62.3728C418.531 62.6585 418.816 62.8936 419.139 63.063C419.496 63.2363 419.887 63.3264 420.284 63.3264C420.681 63.3264 421.072 63.2363 421.429 63.063C421.754 62.8877 422.038 62.6459 422.264 62.3533C422.495 62.0549 422.671 61.7175 422.784 61.3569C422.899 60.997 422.958 60.6216 422.959 60.2437C422.96 59.85 422.896 59.459 422.77 59.0859C422.652 58.7267 422.471 58.3912 422.236 58.0951C422.01 57.8099 421.725 57.5765 421.401 57.4105C421.045 57.2392 420.654 57.1503 420.259 57.1503C419.864 57.1503 419.473 57.2392 419.117 57.4105C418.791 57.5826 418.507 57.8228 418.282 58.1146C418.053 58.4117 417.879 58.7472 417.767 59.1054C417.654 59.4674 417.597 59.8448 417.598 60.2242H417.595Z" fill="white"/>
<path d="M433.179 58.9217V64.847H431.381V55.6014H432.773L437.589 61.6686V55.6126H439.386V64.8442H437.923L433.179 58.9217Z" fill="white"/>
<path d="M452.029 58.0228C451.927 57.9302 451.816 57.8473 451.698 57.7751C451.511 57.6572 451.315 57.5548 451.111 57.4689C450.868 57.3652 450.618 57.2806 450.362 57.2157C450.094 57.1467 449.819 57.1121 449.542 57.1127C449.151 57.0844 448.761 57.1819 448.429 57.391C448.31 57.4793 448.214 57.5956 448.151 57.7296C448.087 57.8635 448.057 58.011 448.064 58.1591C448.057 58.3283 448.105 58.4952 448.201 58.6351C448.307 58.7736 448.443 58.8867 448.598 58.9662C448.807 59.0764 449.028 59.1641 449.255 59.2279C449.52 59.3058 449.826 59.3884 450.173 59.4756C450.624 59.598 451.034 59.7279 451.403 59.8652C451.742 59.987 452.058 60.1628 452.341 60.3856C452.592 60.5877 452.794 60.8435 452.933 61.1343C453.082 61.4725 453.153 61.8394 453.142 62.2086C453.155 62.6481 453.059 63.084 452.864 63.4777C452.686 63.819 452.427 64.1114 452.11 64.3293C451.777 64.5535 451.407 64.7148 451.016 64.8052C450.592 64.9066 450.156 64.9571 449.72 64.9555C449.023 64.9553 448.33 64.8502 447.664 64.6438C447.013 64.4484 446.397 64.1495 445.841 63.7588L446.634 62.2086C446.764 62.3251 446.906 62.4277 447.057 62.5147C447.29 62.6562 447.532 62.7826 447.78 62.8932C448.078 63.0267 448.388 63.1338 448.704 63.2133C449.044 63.3005 449.394 63.3444 449.745 63.3441C450.733 63.3441 451.228 63.0268 451.228 62.3923C451.232 62.2087 451.172 62.0294 451.058 61.8857C450.925 61.7315 450.761 61.6072 450.577 61.5211C450.334 61.4067 450.082 61.3136 449.823 61.2428L448.832 60.9645C448.439 60.8599 448.054 60.7269 447.68 60.5665C447.384 60.4419 447.11 60.2709 446.868 60.06C446.658 59.8734 446.491 59.6424 446.381 59.3837C446.266 59.0915 446.211 58.7791 446.22 58.4653C446.212 58.0344 446.301 57.6073 446.481 57.2157C446.648 56.8601 446.896 56.5484 447.205 56.3056C447.525 56.0548 447.889 55.8661 448.279 55.749C448.705 55.6203 449.149 55.5565 449.595 55.5597C450.207 55.553 450.816 55.6568 451.392 55.8658C451.897 56.0487 452.378 56.2917 452.825 56.5895L452.029 58.0228Z" fill="white"/>
<path d="M43.9891 10C37.2669 10.0006 30.6957 11.995 25.1066 15.7312C19.5175 19.4673 15.1615 24.7774 12.5894 30.9898C10.0173 37.2023 9.34459 44.0382 10.6564 50.6331C11.9682 57.228 15.2055 63.2857 19.9591 68.0402C24.7126 72.7948 30.7689 76.0325 37.362 77.3442C43.9552 78.6558 50.7891 77.9823 56.9996 75.409C63.2101 72.8356 68.5183 68.4779 72.2529 62.8869C75.9875 57.296 77.9809 50.7228 77.9809 43.9986C77.9706 34.9843 74.3859 26.3422 68.0134 19.9684C61.6408 13.5945 53.0009 10.0096 43.9891 10ZM43.9891 69.7063C38.9846 69.7083 34.0895 68.2413 29.9105 65.4871V59.6898C32.8864 62.3571 36.5586 64.1237 40.4995 64.7839C44.4403 65.4441 48.4876 64.9708 52.1699 63.419C55.8522 61.8672 59.018 59.3008 61.2984 56.0188C63.5789 52.7368 64.8802 48.8742 65.0508 44.881C65.2214 40.8878 64.2543 36.9282 62.2621 33.4636C60.2698 29.9989 57.3345 27.1718 53.798 25.3114C50.2615 23.451 46.2693 22.634 42.2865 22.9555C38.3037 23.277 34.4942 24.7238 31.3017 27.1273C32.5958 27.3093 33.8165 27.8386 34.834 28.6589C35.8515 29.4793 36.6279 30.56 37.0806 31.7863C39.1864 30.5835 41.5698 29.9522 43.9947 29.955C47.7072 29.955 51.2676 31.4302 53.8927 34.056C56.5178 36.6819 57.9926 40.2433 57.9926 43.9569C57.9926 47.6704 56.5178 51.2318 53.8927 53.8577C51.2676 56.4836 47.7072 57.9588 43.9947 57.9588C41.9476 57.9612 39.925 57.5141 38.0696 56.649C36.2143 55.7839 34.5714 54.5219 33.257 52.952C31.9427 51.3822 30.9889 49.5429 30.4631 47.564C29.9372 45.5851 29.8521 43.5148 30.2138 41.4994C28.9046 41.484 27.6241 41.1134 26.5088 40.4272C25.3936 39.741 24.4854 38.7649 23.8812 37.603C23.2332 39.6576 22.9047 41.7996 22.9074 43.9541V58.6211C19.6287 53.8985 18.028 48.2124 18.3613 42.4724C18.6946 36.7323 20.9426 31.2698 24.7458 26.9586C28.549 22.6473 33.6877 19.7364 39.34 18.6912C44.9924 17.6461 50.8318 18.5271 55.9245 21.1935C61.0171 23.8599 65.0688 28.1575 67.4315 33.399C69.7942 38.6406 70.3314 44.5233 68.9572 50.1063C67.583 55.6893 64.3769 60.6501 59.8514 64.1953C55.326 67.7405 49.7428 69.6652 43.9947 69.6618L43.9891 69.7063Z" fill="white"/>
<path d="M47.901 43.9986C47.901 42.9652 47.4906 41.9742 46.7601 41.2435C46.0295 40.5127 45.0388 40.1022 44.0057 40.1022C42.9693 40.1022 41.9753 40.5141 41.2425 41.2471C40.5096 41.9802 40.0979 42.9744 40.0979 44.0111C40.0979 45.0478 40.5096 46.0421 41.2425 46.7751C41.9753 47.5082 42.9693 47.92 44.0057 47.92C45.0388 47.92 46.0295 47.5095 46.7601 46.7788C47.4906 46.0481 47.901 45.057 47.901 44.0237V43.9986Z" fill="white"/>
</g>
<defs>
<clipPath id="clip0_682_431">
<rect width="448" height="68" fill="white" transform="translate(10 10)"/>
</clipPath>
</defs>
</svg>
