<svg width="111" height="111" viewBox="0 0 111 111" fill="none" xmlns="http://www.w3.org/2000/svg">
<path d="M111 23.8477C111 20.8526 108.964 18.3252 106.204 17.5729C106.5 16.8306 106.664 16.0224 106.664 15.1758C106.664 12.1807 104.628 9.65331 101.868 8.90103C102.164 8.15872 102.328 7.3505 102.328 6.50391C102.328 2.91765 99.4105 0 95.8242 0H72.4535C67.5984 0 62.6931 1.15726 58.2592 3.35081L56.2889 4.33594H32.5195C31.6732 4.33594 30.8647 4.50027 30.1224 4.79576C29.3701 2.03572 26.8427 0 23.8477 0C20.8526 0 18.3252 2.03572 17.5729 4.79576C16.8306 4.50027 16.0222 4.33594 15.1758 4.33594C12.1807 4.33594 9.65331 6.37166 8.90103 9.1317C8.15872 8.83621 7.35028 8.67188 6.50391 8.67188C2.91765 8.67188 0 11.5895 0 15.1758V38.5465C0 47.6847 3.93183 53.6568 4.33594 54.7111V78.4805C4.33594 79.3268 4.50027 80.1353 4.79576 80.8776C2.03572 81.6299 0 84.1573 0 87.1523C0 90.1474 2.03572 92.6748 4.79576 93.4271C4.50027 94.1694 4.33594 94.9778 4.33594 95.8242C4.33594 98.8193 6.37166 101.347 9.1317 102.099C8.83621 102.841 8.67188 103.65 8.67188 104.496C8.67188 108.082 11.5895 111 15.1758 111H20.4004C21.5977 111 22.5683 110.029 22.5683 108.832C22.5683 107.635 21.5977 106.664 20.4004 106.664H15.1758C13.9804 106.664 13.0078 105.692 13.0078 104.496C13.0078 103.301 13.9804 102.328 15.1758 102.328H19.5117C20.7091 102.328 21.6797 101.358 21.6797 100.16C21.6797 98.9628 20.7091 97.9922 19.5117 97.9922C16.4787 97.9922 13.8728 97.9922 10.8398 97.9922C9.64443 97.9922 8.67188 97.0196 8.67188 95.8242C8.67188 94.6288 9.64443 93.6562 10.8398 93.6562H19.5117C20.7091 93.6562 21.6797 92.6857 21.6797 91.4883C21.6797 90.2909 20.7091 89.3203 19.5117 89.3203C17.5389 89.3203 9.92323 89.3203 6.50391 89.3203C5.30849 89.3203 4.33594 88.3478 4.33594 87.1523C4.33594 85.9569 5.30849 84.9844 6.50391 84.9844H19.5117C20.7091 84.9844 21.6797 84.0138 21.6797 82.8164C21.6797 81.619 20.7091 80.6484 19.5117 80.6484H10.8398C9.64443 80.6484 8.67188 79.6759 8.67188 78.4805C8.67188 77.285 9.64443 76.3125 10.8398 76.3125H32.5195C33.7169 76.3125 34.6875 75.3419 34.6875 74.1445V71.9766H40.1508C45.334 71.9766 49.9728 74.8378 52.2569 79.4437C52.6231 80.1817 53.3756 80.6484 54.1992 80.6484H71.9766V100.16C71.9766 100.92 72.1088 101.65 72.3495 102.328H58.5352C58.1985 102.328 57.8666 102.406 57.5656 102.557L55.1455 103.767C51.3147 105.662 47.0742 106.664 42.8824 106.664H39.8694C38.672 106.664 37.7014 107.635 37.7014 108.832C37.7014 110.029 38.672 111 39.8694 111H42.8824C47.7376 111 52.6428 109.843 57.0765 107.649L59.047 106.664H78.4805C79.3268 106.664 80.1353 106.5 80.8776 106.204C81.6301 108.964 84.1573 111 87.1523 111C90.1474 111 92.6748 108.964 93.4271 106.204C94.1696 106.5 94.9778 106.664 95.8242 106.664C98.8193 106.664 101.347 104.628 102.099 101.868C102.841 102.164 103.65 102.328 104.496 102.328C108.082 102.328 111 99.4105 111 95.8242V69.8086C111 69.4791 110.924 69.1682 110.793 68.8885C110.371 65.2264 109.306 61.6082 107.649 58.2594L106.664 56.2891V32.5195C106.664 31.6732 106.5 30.8647 106.204 30.1224C108.964 29.3701 111 26.8429 111 23.8477ZM30.3516 71.9766H10.8398C10.0798 71.9766 9.35045 72.1088 8.67188 72.3495V54.1992C8.67188 53.8628 8.59361 53.5308 8.44294 53.2297C7.95016 51.971 4.33594 46.6566 4.33594 38.5465V15.1758C4.33594 13.9804 5.30849 13.0078 6.50391 13.0078C7.69932 13.0078 8.67188 13.9804 8.67188 15.1758V19.5117C8.67188 20.7091 9.64248 21.6797 10.8398 21.6797C12.0372 21.6797 13.0078 20.7091 13.0078 19.5117V10.8398C13.0078 9.64443 13.9804 8.67188 15.1758 8.67188C16.3712 8.67188 17.3438 9.64443 17.3438 10.8398V19.5117C17.3438 20.7091 18.3144 21.6797 19.5117 21.6797C20.7091 21.6797 21.6797 20.7091 21.6797 19.5117C21.6797 17.5389 21.6797 9.92323 21.6797 6.50391C21.6797 5.30849 22.6522 4.33594 23.8477 4.33594C25.0431 4.33594 26.0156 5.30849 26.0156 6.50391V19.5117C26.0156 20.7091 26.9862 21.6797 28.1836 21.6797C29.381 21.6797 30.3516 20.7091 30.3516 19.5117V10.8398C30.3516 9.64443 31.3241 8.67188 32.5195 8.67188C33.715 8.67188 34.6875 9.64443 34.6875 10.8398V32.5195C34.6875 33.7169 35.6581 34.6875 36.8555 34.6875H39.0234V40.1508C39.0234 45.2553 36.0923 50.0072 31.5563 52.2569C30.8183 52.6231 30.3516 53.3756 30.3516 54.1992V71.9766ZM40.1508 67.6406H34.6875V55.4861C40.0697 52.2875 43.3594 46.5296 43.3594 40.1508V34.6875H55.5141C58.7125 40.0697 64.4702 43.3594 70.8492 43.3594H76.3125V55.5139C70.9303 58.7125 67.6406 64.4702 67.6406 70.8492V76.3125H55.4861C52.2875 70.9305 46.5298 67.6406 40.1508 67.6406ZM106.664 95.8242C106.664 97.0196 105.692 97.9922 104.496 97.9922C103.301 97.9922 102.328 97.0196 102.328 95.8242V91.4883C102.328 90.2909 101.357 89.3203 100.16 89.3203C98.963 89.3203 97.9922 90.2909 97.9922 91.4883V100.16C97.9922 101.356 97.0196 102.328 95.8242 102.328C94.6288 102.328 93.6562 101.356 93.6562 100.16V91.4883C93.6562 90.2909 92.6854 89.3203 91.4883 89.3203C90.2911 89.3203 89.3203 90.2909 89.3203 91.4883V104.496C89.3203 105.692 88.3478 106.664 87.1523 106.664C85.9569 106.664 84.9844 105.692 84.9844 104.496V91.4883C84.9844 90.2909 84.0136 89.3203 82.8164 89.3203C81.6193 89.3203 80.6484 90.2909 80.6484 91.4883V100.16C80.6484 101.356 79.6759 102.328 78.4805 102.328C77.285 102.328 76.3125 101.356 76.3125 100.16V78.4805C76.3125 77.2831 75.3417 76.3125 74.1445 76.3125H71.9766V70.8492C71.9766 65.666 74.8378 61.0272 79.4437 58.7431C80.1817 58.3771 80.6484 57.6246 80.6484 56.8008V39.0234H100.16C100.92 39.0234 101.65 38.8912 102.328 38.6505V56.8008C102.328 57.1372 102.406 57.4692 102.557 57.7703L103.767 60.1904C105.662 64.0212 106.664 68.2617 106.664 72.4535V95.8242ZM104.496 26.0156H91.4883C90.2911 26.0156 89.3203 26.9862 89.3203 28.1836C89.3203 29.381 90.2911 30.3516 91.4883 30.3516H100.16C101.356 30.3516 102.328 31.3241 102.328 32.5195C102.328 33.715 101.356 34.6875 100.16 34.6875H78.4805C77.2833 34.6875 76.3125 35.6581 76.3125 36.8555V39.0234H70.8492C65.7445 39.0234 60.9926 36.0923 58.7431 31.5563C58.3771 30.8185 57.6246 30.3516 56.8008 30.3516H39.0234V10.8398C39.0234 10.0798 38.8912 9.35045 38.6505 8.67188H56.8008C57.1375 8.67188 57.4694 8.59361 57.7705 8.44294C59.0277 7.95103 64.3431 4.33594 72.4535 4.33594H95.8242C97.0196 4.33594 97.9922 5.30849 97.9922 6.50391C97.9922 7.69932 97.0196 8.67188 95.8242 8.67188H91.4883C90.2911 8.67188 89.3203 9.64248 89.3203 10.8398C89.3203 12.0372 90.2911 13.0078 91.4883 13.0078H100.16C101.356 13.0078 102.328 13.9804 102.328 15.1758C102.328 16.3712 101.356 17.3438 100.16 17.3438H91.4883C90.2911 17.3438 89.3203 18.3144 89.3203 19.5117C89.3203 20.7091 90.2911 21.6797 91.4883 21.6797H104.496C105.692 21.6797 106.664 22.6522 106.664 23.8477C106.664 25.0431 105.692 26.0156 104.496 26.0156Z" fill="black"/>
<path d="M30.3516 110.35C31.5489 110.35 32.5195 109.379 32.5195 108.182C32.5195 106.984 31.5489 106.014 30.3516 106.014C29.1542 106.014 28.1836 106.984 28.1836 108.182C28.1836 109.379 29.1542 110.35 30.3516 110.35Z" fill="black"/>
</svg>
