<svg width="117" height="117" viewBox="0 0 117 117" fill="none" xmlns="http://www.w3.org/2000/svg">
<path d="M97.9156 95.1839C96.0448 96.164 93.9925 96.7712 91.8161 96.9889C91.3488 97.0358 90.921 97.2723 90.6329 97.6434C90.3447 98.0145 90.2218 98.4875 90.2924 98.9521C90.3911 99.5995 90.4368 100.133 90.4368 100.631C90.4368 107.767 83.6579 113.572 75.3254 113.572C69.2553 113.572 63.7943 110.477 61.4125 105.686C61.1415 105.141 60.7231 104.701 60.2137 104.398V82.7424C60.3439 82.7379 60.474 82.7333 60.607 82.7287C63.9561 82.6099 68.1219 82.4604 70.4425 84.6997C71.6371 85.8523 72.333 87.6509 72.5226 90.0528C70.554 90.7749 69.1454 92.6666 69.1454 94.8807C69.1454 97.7154 71.4541 100.022 74.2916 100.022C77.129 100.022 79.4377 97.7154 79.4377 94.8807C79.4377 92.6284 77.9798 90.7112 75.9579 90.0179C75.7308 86.6393 74.6794 84.0244 72.8229 82.2328C69.4544 78.9824 64.2703 79.168 60.4849 79.303C60.3933 79.3062 60.3042 79.3094 60.2139 79.3126V68.5382C77.6967 68.5736 86.521 69.2902 87.2851 78.7098C85.3167 79.4322 83.9084 81.3236 83.9084 83.5377C83.9084 86.3724 86.2171 88.6788 89.0545 88.6788C91.892 88.6788 94.2007 86.3724 94.2007 83.5377C94.2007 81.2843 92.7414 79.3666 90.7179 78.6739C90.2954 72.5987 87.1176 68.7212 81.0353 66.846C75.7591 65.2195 68.5554 65.1159 60.2139 65.1095V54.4011C68.5554 54.3945 75.7591 54.2912 81.0353 52.6646C87.1176 50.7894 90.2954 46.912 90.7179 40.8367C92.7414 40.1441 94.2007 38.2262 94.2007 35.9728C94.2007 33.138 91.892 30.8319 89.0545 30.8319C86.2171 30.8319 83.9084 33.138 83.9084 35.9728C83.9084 38.1868 85.3167 40.0785 87.2851 40.8008C86.521 50.2204 77.6967 50.9371 60.2139 50.9725V40.5383C60.3042 40.5415 60.3931 40.5444 60.4849 40.5479C61.287 40.5764 62.1517 40.6075 63.0487 40.6075C66.3857 40.6075 70.168 40.1797 72.8229 37.6181C74.6796 35.8267 75.7308 33.2116 75.9579 29.8333C77.9798 29.1397 79.4377 27.2225 79.4377 24.9702C79.4377 22.1355 77.129 19.8293 74.2916 19.8293C71.4541 19.8293 69.1454 22.1355 69.1454 24.9702C69.1454 27.1843 70.5538 29.0762 72.5226 29.7983C72.333 32.2002 71.6371 33.9989 70.4425 35.1513C68.1219 37.3905 63.9547 37.2408 60.6072 37.1222C60.4742 37.1174 60.3442 37.1128 60.2137 37.1085V29.6831C60.2137 28.7364 59.4466 27.9693 58.4998 27.9693C57.5531 27.9693 56.786 28.7364 56.786 29.6831V104.399C56.2766 104.702 55.858 105.142 55.587 105.687C53.2054 110.477 47.7443 113.572 41.6743 113.572C33.3417 113.572 26.5628 107.767 26.5628 100.631C26.5628 100.133 26.6085 99.5995 26.7073 98.9521C26.7111 98.9238 27.1275 96.0833 29.0808 94.199C29.7621 93.542 29.7815 92.457 29.1243 91.7758C28.4671 91.0949 27.3818 91.0748 26.7011 91.7324C25.0183 93.3558 24.147 95.3697 23.7126 96.7723C19.7225 96.0159 16.1723 93.8649 14.0256 90.8405C13.4779 90.0693 12.4077 89.8874 11.6358 90.4352C10.8641 90.9831 10.6824 92.053 11.2304 92.825C13.9406 96.6427 18.2193 99.259 23.1449 100.16C23.1388 100.32 23.1356 100.476 23.1356 100.632C23.1356 109.657 31.4524 117 41.6748 117C48.9077 117 55.4704 113.29 58.5003 107.519C61.5299 113.289 68.0924 117 75.3254 117C85.5478 117 93.8645 109.657 93.8645 100.631C93.8645 100.476 93.8613 100.319 93.8552 100.16C95.846 99.7949 97.7406 99.1452 99.5063 98.2202C100.345 97.781 100.668 96.7451 100.229 95.9067C99.7899 95.0681 98.7545 94.7445 97.9156 95.1839ZM74.2913 93.1677C75.2388 93.1677 76.0098 93.9362 76.0098 94.8809C76.0098 95.8258 75.239 96.5943 74.2913 96.5943C73.3437 96.5943 72.5729 95.8258 72.5729 94.8809C72.5731 93.9362 73.3439 93.1677 74.2913 93.1677ZM89.0543 81.8245C90.0017 81.8245 90.7727 82.593 90.7727 83.5377C90.7727 84.4826 90.002 85.2511 89.0543 85.2511C88.1067 85.2511 87.3359 84.4826 87.3359 83.5377C87.3359 82.5932 88.1069 81.8245 89.0543 81.8245ZM89.0543 34.2596C90.0017 34.2596 90.7727 35.0281 90.7727 35.9728C90.7727 36.9177 90.002 37.6862 89.0543 37.6862C88.1067 37.6862 87.3359 36.9177 87.3359 35.9728C87.3359 35.0281 88.1069 34.2596 89.0543 34.2596ZM74.2913 23.2566C75.2388 23.2566 76.0098 24.0251 76.0098 24.9698C76.0098 25.9147 75.239 26.6832 74.2913 26.6832C73.3437 26.6832 72.5729 25.9147 72.5729 24.9698C72.5731 24.0253 73.3439 23.2566 74.2913 23.2566Z" fill="black"/>
<path d="M11.8405 84.1451C11.8405 81.0455 13.1433 77.9572 15.4149 75.6727C15.8532 75.2317 16.0187 74.5882 15.8468 73.9906C15.675 73.3933 15.193 72.9356 14.5872 72.795C8.01675 71.2688 3.42772 66.1436 3.42772 60.3316C3.42772 56.7165 5.11165 53.281 8.16917 50.6579C8.53525 50.3441 8.75189 49.8908 8.76628 49.4088C8.78091 48.9271 8.59192 48.4614 8.24595 48.1262C6.4953 46.4301 5.5312 44.2595 5.5312 42.0136C5.5312 36.9788 10.1705 32.911 16.0927 32.7533C16.1194 32.7535 18.7334 32.7967 20.5704 34.4214C20.8965 34.7098 21.3017 34.8515 21.7052 34.8515C22.1792 34.8515 22.6511 34.6561 22.9897 34.2731C23.6168 33.5641 23.5503 32.4809 22.8414 31.8539C20.8666 30.1073 18.4162 29.568 17.0618 29.4012C16.3987 28.1844 16.047 26.8606 16.047 25.5277C16.047 22.6959 17.5447 20.0531 20.1559 18.2771C20.9386 17.7449 21.1415 16.6789 20.6091 15.8962C20.0768 15.1136 19.0106 14.9104 18.2282 15.4431C14.6633 17.8674 12.619 21.5433 12.619 25.5279C12.619 26.9182 12.8793 28.2961 13.3825 29.6062C6.88286 30.8361 2.10348 35.9029 2.10348 42.0141C2.10348 44.6237 3.00086 47.1413 4.6601 49.2571C1.64256 52.3685 0 56.2441 0 60.3316C0 66.9348 4.50357 72.8106 11.2324 75.3521C9.41938 77.9466 8.41277 81.0368 8.41277 84.1451C8.41277 85.0919 9.17989 85.859 10.1266 85.859C11.0734 85.859 11.8405 85.0916 11.8405 84.1451Z" fill="black"/>
<path d="M117 60.3315C117 56.2436 115.357 52.368 112.339 49.2566C113.998 47.1405 114.896 44.623 114.896 42.0136C114.896 35.9024 110.116 30.8356 103.617 29.6057C104.12 28.2956 104.38 26.9174 104.38 25.5274C104.38 18.522 97.9505 12.8226 90.0473 12.8226C89.8897 12.8226 89.7203 12.8263 89.5435 12.8327C89.1052 9.60036 87.4178 6.58351 84.6955 4.2161C81.6293 1.54956 77.6374 0.0525584 73.4551 0.0015996C73.379 0.00045703 73.3029 0 73.2268 0C66.9957 0 61.2698 3.13774 58.4997 8.06154C55.7297 3.13751 50.0045 0 43.7727 0C43.697 0 43.6202 0.00045703 43.5444 0.0015996C39.3619 0.0527869 35.3699 1.54956 32.3037 4.2161C29.5819 6.58305 27.8948 9.59968 27.456 12.8327C27.2791 12.8263 27.1098 12.8226 26.9521 12.8226C26.0054 12.8226 25.2383 13.5898 25.2383 14.5365C25.2383 15.4832 26.0054 16.2504 26.9521 16.2504C27.4759 16.2504 28.2053 16.3036 28.8561 16.3893C29.3717 16.4572 29.8851 16.2892 30.2599 15.9334C30.6351 15.5774 30.8293 15.0712 30.7887 14.5557L30.7784 14.4387C30.7756 14.4079 30.772 14.3772 30.7709 14.3628C30.8751 8.51994 36.744 3.51273 43.5864 3.42863C48.7554 3.37608 53.48 5.92424 55.6255 9.94816C55.8963 10.4561 56.3005 10.8688 56.7861 11.1581V21.7704C56.7861 22.7171 57.5532 23.4842 58.5 23.4842C59.4467 23.4842 60.2138 22.7171 60.2138 21.7704V11.1584C60.6994 10.8693 61.1037 10.4564 61.3745 9.94839C63.4937 5.97337 68.131 3.42772 73.225 3.42772C73.2876 3.42772 73.3505 3.42818 73.4131 3.42886C80.2555 3.51273 86.1244 8.51994 86.2286 14.3464C86.201 14.3267 86.18 17.7821 84.3374 19.9843C83.7301 20.7103 83.8263 21.7909 84.552 22.3983C84.8726 22.6668 85.2627 22.7978 85.651 22.7978C86.1409 22.7978 86.6272 22.5889 86.9663 22.1835C88.5622 20.2761 89.211 17.9037 89.4751 16.267C89.681 16.2563 89.876 16.2501 90.0476 16.2501C96.0605 16.2501 100.953 20.4118 100.953 25.5272C100.953 27.1146 100.46 28.6916 99.5275 30.0876C99.1806 30.6066 99.1436 31.2732 99.4306 31.8273C99.7174 32.3817 100.283 32.7363 100.907 32.7528C106.829 32.9105 111.469 36.9783 111.469 42.0131C111.469 44.259 110.504 46.4296 108.754 48.1257C108.736 48.1435 106.903 49.9679 104.513 50.1581C103.569 50.233 102.865 51.0586 102.94 52.0024C103.011 52.8998 103.762 53.5803 104.647 53.5803C104.692 53.5803 104.738 53.5785 104.784 53.5751C106.956 53.4025 108.74 52.4309 109.868 51.6338C112.266 54.1063 113.572 57.1488 113.572 60.3315C113.572 66.1438 108.983 71.2687 102.412 72.7947C101.807 72.9353 101.325 73.393 101.153 73.9903C100.981 74.5879 101.146 75.2316 101.585 75.6724C103.856 77.9571 105.159 81.0453 105.159 84.1448C105.159 86.3132 104.518 88.4581 103.307 90.3479C102.796 91.1445 103.028 92.2048 103.825 92.7155C104.111 92.8992 104.432 92.987 104.748 92.987C105.313 92.987 105.866 92.7084 106.193 92.1979C107.759 89.7553 108.587 86.9704 108.587 84.1451C108.587 81.037 107.58 77.9468 105.767 75.3521C112.496 72.8107 117 66.9349 117 60.3315Z" fill="black"/>
<path d="M19.3582 58.6336C19.3052 59.5788 20.0284 60.388 20.9731 60.441C21.006 60.4428 21.0385 60.4437 21.0709 60.4437C21.9733 60.4437 22.7293 59.7383 22.7804 58.8261C22.7852 58.7399 23.3636 50.198 32.0083 48.0952C32.9281 47.8715 33.4923 46.9447 33.2686 46.0249C33.0449 45.1051 32.1187 44.5402 31.1982 44.7646C25.4047 46.1739 22.4879 49.8706 21.0611 52.7236C19.5342 55.777 19.3646 58.5185 19.3582 58.6336Z" fill="black"/>
<path d="M45.8981 18.9953C44.9607 18.9074 44.12 19.5982 44.0309 20.5408C43.5233 25.9196 37.9533 27.9799 37.7092 28.0674C36.8192 28.3825 36.3514 29.3583 36.6638 30.2499C36.911 30.9558 37.5733 31.3973 38.2812 31.3973C38.4691 31.3973 38.6606 31.366 38.8479 31.3004C39.1692 31.1877 46.7271 28.4547 47.4433 20.8625C47.5322 19.9201 46.8405 19.0842 45.8981 18.9953Z" fill="black"/>
<path d="M44.5183 95.3681C44.7562 95.4812 45.0069 95.5347 45.2537 95.5347C45.8942 95.5347 46.5087 95.1739 46.8023 94.5569C47.2088 93.7022 46.8457 92.6794 45.9911 92.2729C39.3955 89.1347 39.9599 81.6739 39.9878 81.3508C40.0728 80.4107 39.3813 79.578 38.4405 79.4898C37.4999 79.4047 36.6624 80.0939 36.5742 81.0366C36.5361 81.449 35.7296 91.1863 44.5183 95.3681Z" fill="black"/>
<path d="M40.4572 63.557C39.6023 63.9635 39.2392 64.9861 39.6457 65.8408C39.9391 66.458 40.5538 66.8188 41.1943 66.8188C41.4411 66.8188 41.6918 66.7653 41.9295 66.6522C47.478 64.0124 46.9705 57.8795 46.9461 57.6199C46.8576 56.6773 46.0194 55.9881 45.0798 56.0731C44.1374 56.1616 43.445 56.997 43.533 57.9394C43.5368 57.9792 43.8664 61.9348 40.4572 63.557Z" fill="black"/>
<path d="M81.2 59.9258C81.2 60.8723 81.9673 61.6396 82.914 61.6396C83.8608 61.6396 84.6281 60.8723 84.6281 59.9258C84.6281 58.9793 83.8608 58.2119 82.914 58.2119C81.9673 58.2119 81.2 58.9793 81.2 59.9258Z" fill="black"/>
<path d="M94.566 61.6396C95.5128 61.6396 96.2801 60.8723 96.2801 59.9258C96.2801 58.9793 95.5128 58.2119 94.566 58.2119C93.6193 58.2119 92.8519 58.9793 92.8519 59.9258C92.8519 60.8723 93.6195 61.6396 94.566 61.6396Z" fill="black"/>
<path d="M72.5781 107.114C72.5781 108.061 73.3455 108.828 74.2922 108.828C75.239 108.828 76.0063 108.061 76.0063 107.114C76.0063 106.167 75.239 105.4 74.2922 105.4C73.3455 105.4 72.5781 106.167 72.5781 107.114Z" fill="black"/>
<path d="M76.0061 12.7374C76.0061 11.7909 75.2387 11.0236 74.292 11.0236C73.3452 11.0236 72.5779 11.7909 72.5779 12.7374C72.5779 13.6839 73.3452 14.4513 74.292 14.4513C75.2387 14.4513 76.0061 13.6839 76.0061 12.7374Z" fill="black"/>
</svg>
