<svg width="90" height="113" viewBox="0 0 90 113" fill="none" xmlns="http://www.w3.org/2000/svg">
<path d="M88.9496 99.0887L74.6547 74.3291C77.0256 72.3326 78.6641 69.493 79.1019 66.2753C79.3992 64.0874 80.5245 62.1381 82.2705 60.7865C86.7968 57.2829 88.4439 51.1361 86.276 45.8384C85.4397 43.7948 85.4397 41.544 86.276 39.5006C88.4439 34.2029 86.7968 28.0563 82.2705 24.5525C80.5245 23.201 79.399 21.2516 79.1019 19.0637C78.3304 13.3921 73.8305 8.89214 68.1588 8.12111C65.9711 7.82355 64.0218 6.69824 62.6704 4.95221C59.1665 0.42578 53.0203 -1.22114 47.7221 0.946719C45.6786 1.78309 43.4277 1.78309 41.3843 0.946719C36.0871 -1.22136 29.94 0.42578 26.4363 4.95221C25.0847 6.69824 23.1354 7.82355 20.9474 8.12111C15.2756 8.89236 10.7759 13.3921 10.0049 19.0639C9.7073 21.2519 8.58198 23.2012 6.83595 24.5528C2.30953 28.0565 0.662607 34.2034 2.83046 39.5008C3.66684 41.5442 3.66684 43.7953 2.83046 45.8386C0.662387 51.1361 2.30953 57.2829 6.83595 60.7867C8.58198 62.1383 9.7073 64.0876 10.0049 66.2753C10.4481 69.5354 12.1248 72.4065 14.5461 74.4066L0.295743 99.0887C-0.150586 99.862 -0.0874554 100.828 0.456219 101.536C0.999673 102.244 1.91595 102.556 2.77881 102.325L15.1999 98.9962L18.5138 111.364C18.7449 112.226 19.4727 112.864 20.3578 112.981C20.4545 112.994 20.551 113 20.6466 113C21.4275 113 22.1599 112.585 22.5575 111.896L37.9345 85.2629C39.1004 85.1373 40.2615 84.8519 41.3841 84.3923C43.4277 83.5559 45.6788 83.5559 47.7219 84.3923C48.8925 84.8715 50.1048 85.1635 51.3208 85.2801L66.6876 111.896C67.0854 112.585 67.8176 113 68.5985 113C68.6944 113 68.7906 112.994 68.8875 112.981C69.7726 112.864 70.5004 112.226 70.7315 111.364L74.0457 98.9962L86.4668 102.325C87.3285 102.556 88.2457 102.245 88.7891 101.536C89.3326 100.828 89.3959 99.862 88.9496 99.0887ZM21.3986 105.074L18.8926 95.7216C18.741 95.1561 18.3712 94.674 17.8642 94.3813C17.3572 94.0886 16.755 94.0094 16.1892 94.1608L6.78342 96.6809L18.3816 76.5923C19.2016 76.8857 20.0601 77.0974 20.9472 77.2181C23.1352 77.5157 25.0845 78.641 26.4361 80.387C28.1514 82.603 30.5007 84.1272 33.0734 84.853L21.3986 105.074ZM39.7118 80.3067C36.2443 81.726 32.2207 80.6477 29.927 77.685C27.8622 75.0176 24.8843 73.2981 21.5419 72.8438C17.8293 72.339 14.8836 69.3934 14.379 65.6806C13.9245 62.3383 12.2052 59.3605 9.53777 57.2955C6.57482 55.0021 5.49674 50.9783 6.91586 47.5107C8.19371 44.3888 8.19371 40.9504 6.91586 37.8285C5.49674 34.361 6.57482 30.3372 9.53777 28.0437C12.2052 25.9789 13.9245 23.0012 14.379 19.6586C14.8838 15.946 17.8293 13.0003 21.5419 12.4954C24.8843 12.0412 27.8622 10.3219 29.927 7.65447C31.5446 5.56475 34.0219 4.41273 36.5586 4.41273C37.6188 4.41273 38.6896 4.61426 39.7116 5.03256C42.8337 6.31018 46.2723 6.31018 49.394 5.03256C52.8613 3.61322 56.8854 4.69152 59.1788 7.65447C61.2436 10.3219 64.2213 12.0412 67.5635 12.4954C71.2761 13.0003 74.2218 15.9458 74.7266 19.6586C75.1811 23.0012 76.9005 25.9789 79.5678 28.0437C82.5308 30.3372 83.6089 34.3607 82.1898 37.8285C80.9121 40.9504 80.9121 44.3888 82.1898 47.5107C83.6089 50.9783 82.5306 55.0021 79.5678 57.2955C76.9005 59.3603 75.1811 62.338 74.7266 65.6804C74.2218 69.3932 71.2761 72.339 67.5637 72.8436C64.2211 73.2978 61.2434 75.0172 59.1786 77.6848C56.8849 80.6479 52.8613 81.7258 49.394 80.3064C46.2721 79.029 42.8339 79.0291 39.7118 80.3067ZM73.0559 94.1608C71.8778 93.8449 70.6682 94.5442 70.3525 95.7216L67.8463 105.074L56.1516 84.8181C58.6775 84.0791 60.9811 82.5688 62.6702 80.387C64.0216 78.6408 65.9709 77.5155 68.1586 77.2181C69.0873 77.0919 69.9839 76.8638 70.8384 76.5489L82.4615 96.6809L73.0559 94.1608Z" fill="#272727"/>
<path d="M34.5219 34.5045L27.6541 41.372C27.2402 41.7859 27.0076 42.3475 27.0076 42.9328C27.0076 43.5182 27.2402 44.0798 27.6541 44.4937L40.5348 57.3746C40.9486 57.7884 41.5102 58.0211 42.0956 58.0211C42.681 58.0211 43.2425 57.7884 43.6564 57.3746L61.5913 39.4397C62.4533 38.5777 62.4533 37.18 61.5913 36.318L54.7237 29.4502C54.3096 29.0364 53.7483 28.8037 53.1629 28.8037C52.5775 28.8037 52.0159 29.0364 51.6021 29.4502L42.0958 38.9567L37.644 34.5047C37.2301 34.0908 36.6686 33.8581 36.0832 33.8581C35.4973 33.8579 34.9358 34.0906 34.5219 34.5045ZM40.5345 43.6392C40.9484 44.0531 41.51 44.2857 42.0954 44.2857C42.6808 44.2857 43.2423 44.0531 43.6562 43.6392L53.1624 34.1327L56.9086 37.8789L42.0954 52.6921L32.3366 42.9331L36.0827 39.1872L40.5345 43.6392Z" fill="#272727"/>
<path d="M73.3184 43.4125C73.3184 37.5488 71.5611 31.9094 68.2368 27.104C64.9904 22.4118 60.481 18.8237 55.1961 16.728C54.0624 16.2788 52.78 16.8331 52.3305 17.9664C51.8811 19.0996 52.4356 20.3826 53.5686 20.832C62.8844 24.526 68.9039 33.3895 68.9039 43.4125C68.9039 56.801 58.0114 67.6935 44.6228 67.6935C31.2343 67.6935 20.3418 56.801 20.3418 43.4125C20.3418 33.3892 26.3613 24.5258 35.677 20.8318C36.8103 20.3823 37.3648 19.0994 36.9154 17.9661C36.466 16.8329 35.1828 16.2784 34.0498 16.7278C28.7647 18.8237 24.2552 22.4116 21.0089 27.1038C17.6843 31.9092 15.9271 37.5486 15.9271 43.4122C15.9271 59.2351 28.8 72.108 44.6228 72.108C60.4457 72.1082 73.3184 59.2353 73.3184 43.4125Z" fill="#272727"/>
<path d="M44.6226 19.1306C45.2031 19.1306 45.7726 18.8966 46.183 18.4838C46.5935 18.0732 46.83 17.5059 46.83 16.9232C46.83 16.3427 46.5938 15.7731 46.183 15.3626C45.7726 14.952 45.2031 14.7158 44.6226 14.7158C44.0421 14.7158 43.4726 14.952 43.062 15.3626C42.6514 15.7731 42.4152 16.3427 42.4152 16.9232C42.4152 17.5059 42.6514 18.0732 43.062 18.4838C43.4726 18.8966 44.0421 19.1306 44.6226 19.1306Z" fill="#272727"/>
</svg>
