<svg width="148" height="107" viewBox="0 0 148 107" fill="none" xmlns="http://www.w3.org/2000/svg">
<path d="M119.739 59.0252L107.887 70.8772C107.732 70.6897 107.568 70.5074 107.393 70.3321L92.0866 55.0257C91.2401 54.1796 89.8684 54.1796 89.0222 55.0257C88.1761 55.8719 88.1761 57.2439 89.0222 58.0898L104.329 73.3961C105.644 74.7117 105.644 76.8527 104.329 78.1684C103.012 79.484 100.872 79.4843 99.5563 78.1684L91.0509 69.663C90.2044 68.8168 88.8327 68.8168 87.9866 69.663C87.1404 70.5091 87.1404 71.8811 87.9866 72.727L96.492 81.2324C96.4922 81.2327 96.4928 81.233 96.4931 81.2336C97.1298 81.8709 97.4806 82.7176 97.4806 83.6187C97.4806 84.5201 97.1296 85.3674 96.492 86.005C95.8547 86.6423 95.0073 86.9933 94.106 86.9933C93.2046 86.9933 92.3573 86.6423 91.72 86.005L83.2146 77.4996C82.3681 76.6534 80.9964 76.6534 80.1502 77.4996C79.3041 78.3458 79.3041 79.7177 80.1502 80.5636L88.6556 89.069C89.9716 90.3847 89.9716 92.5257 88.6559 93.8413C88.0183 94.4789 87.1707 94.8299 86.2694 94.8299C85.368 94.8299 84.5207 94.4789 83.8834 93.8416L75.378 85.3362C74.5315 84.49 73.1598 84.49 72.3136 85.3362C71.4674 86.1824 71.4674 87.5543 72.3136 88.4002L80.819 96.9056C82.135 98.2213 82.135 100.362 80.819 101.678C80.1817 102.315 79.3344 102.666 78.433 102.666C77.5317 102.666 76.6843 102.315 76.047 101.678L70.5369 96.1678C72.2925 93.2421 71.9118 89.3828 69.3923 86.8636L69.2617 86.733C67.5832 85.0545 65.3093 84.3256 63.1131 84.5449C62.9898 82.7069 62.217 80.9955 60.9019 79.6805C59.8847 78.6633 58.6488 77.9947 57.3442 77.6746C57.6767 76.8117 57.8526 75.8864 57.8526 74.9339C57.8526 72.8995 57.0605 70.987 55.6221 69.5486C54.1836 68.1102 52.2711 67.318 50.2367 67.318C49.0774 67.318 47.9582 67.576 46.9433 68.0636C46.6018 66.8508 45.9567 65.7065 45.0042 64.754C42.0352 61.7848 37.2034 61.785 34.2339 64.754L33.3403 65.6476L32.6889 64.9961C31.641 63.9483 31.0641 62.5555 31.0641 61.0738V55.423C31.0641 54.8484 30.8359 54.2971 30.4297 53.891L21.1798 44.6411L23.7807 42.0398C24.6269 41.1937 24.6269 39.8217 23.7804 38.9758C22.9346 38.1293 21.5626 38.1296 20.7164 38.9758L17.2323 42.4602C16.5754 43.1171 15.5059 43.1174 14.8489 42.4602L3.69896 31.3099C2.85278 30.4637 1.4811 30.4637 0.634633 31.3099C-0.211544 32.1561 -0.211544 33.5278 0.634633 34.374L11.7849 45.5242C12.9584 46.6974 14.4994 47.2839 16.0403 47.2839C16.5338 47.2839 17.0258 47.2169 17.5071 47.0967L26.7307 56.32V61.0735C26.7307 63.7126 27.7586 66.1936 29.6245 68.0599L30.2763 68.7116L29.5512 69.4368C28.1127 70.8752 27.3203 72.7877 27.3203 74.8221C27.3203 76.8565 28.1125 78.769 29.5509 80.2071C31.0358 81.6918 32.9861 82.4342 34.9365 82.4342C34.9674 82.4342 34.9983 82.4325 35.0292 82.4319C35.0289 82.464 35.0269 82.4958 35.0269 82.5281C35.0269 84.5625 35.8191 86.475 37.2575 87.9131C38.6959 89.3516 40.6087 90.1437 42.6428 90.1437C42.6749 90.1437 42.7069 90.1417 42.739 90.1414C42.715 92.1224 43.4555 94.1111 44.9635 95.6192C46.4484 97.1038 48.3988 97.8463 50.3491 97.8463C50.3812 97.8463 50.4132 97.8443 50.445 97.844C50.4202 99.8261 51.1606 101.816 52.6698 103.325L52.8004 103.456C54.2388 104.894 56.1513 105.687 58.1854 105.687C60.2198 105.687 62.1323 104.894 63.5708 103.456L67.6341 99.393L72.9833 104.742C74.439 106.198 76.3746 107 78.4336 107C80.4926 107 82.4282 106.198 83.8839 104.742C85.42 103.206 86.1688 101.178 86.1347 99.1602C86.1798 99.161 86.2246 99.1634 86.2699 99.1634C88.3289 99.1634 90.2645 98.3617 91.7205 96.9056C93.2575 95.3687 94.0063 93.3386 93.9713 91.3201C94.0164 91.321 94.0615 91.3233 94.1065 91.3233C96.08 91.323 98.0543 90.5716 99.5566 89.0693C101.013 87.6136 101.814 85.6779 101.814 83.619C101.814 83.5736 101.812 83.5289 101.811 83.4838C101.855 83.4846 101.899 83.487 101.943 83.487C103.917 83.487 105.891 82.7355 107.393 81.233C109.027 79.599 109.771 77.408 109.628 75.2658L122.804 62.0898C123.65 61.2437 123.65 59.8717 122.804 59.0258C121.957 58.179 120.585 58.179 119.739 59.0252ZM32.6149 77.1428C31.9949 76.5228 31.6537 75.6986 31.6537 74.8221C31.6537 73.9453 31.9952 73.1211 32.6152 72.5011L37.2979 67.8184C37.9381 67.1785 38.7785 66.8584 39.6192 66.8584C40.4596 66.8584 41.3 67.1782 41.9399 67.8181C43.2197 69.0982 43.2197 71.1805 41.9399 72.4601L37.2569 77.1431C35.9771 78.4229 33.895 78.4226 32.6149 77.1428ZM42.6422 85.8106C41.7657 85.8106 40.9412 85.4691 40.3212 84.8491C39.7013 84.2291 39.3601 83.4049 39.3601 82.5284C39.3601 81.6519 39.7015 80.8274 40.3215 80.2074L45.0045 75.5244L47.916 72.6129C48.536 71.9929 49.3599 71.6514 50.2367 71.6514C51.1135 71.6514 51.9378 71.9929 52.5574 72.6129C53.1774 73.2329 53.5189 74.0574 53.5189 74.9339C53.5189 75.8104 53.1774 76.6349 52.5574 77.2549L44.9629 84.8494C44.3429 85.4691 43.519 85.8106 42.6422 85.8106ZM48.0272 92.5551C46.7474 91.2753 46.7474 89.193 48.0272 87.9131L53.1959 82.7442C53.8358 82.1046 54.6762 81.7848 55.5169 81.7848C56.3573 81.7848 57.198 82.1049 57.8376 82.7445C58.4576 83.3645 58.799 84.189 58.799 85.0655C58.799 85.9417 58.4581 86.7654 57.8388 87.385L52.669 92.5548C51.3894 93.8349 49.3071 93.8349 48.0272 92.5551ZM60.5056 100.392C59.8856 101.012 59.0617 101.353 58.1849 101.353C57.3083 101.353 56.4838 101.012 55.8641 100.392L55.7339 100.261C54.4538 98.9816 54.4538 96.8993 55.7339 95.6195L60.9022 90.4511C60.9039 90.4494 60.9054 90.4476 60.9068 90.4462L61.5554 89.7973C62.1956 89.1574 63.036 88.8376 63.8767 88.8376C64.7171 88.8376 65.5578 89.1577 66.1974 89.7973L66.3277 89.9276C67.6078 91.2074 67.6078 93.2898 66.3277 94.5696L60.5056 100.392Z" fill="black"/>
<path d="M146.982 40.4394C146.136 39.5932 144.764 39.5929 143.918 40.4394L135.798 48.5591C135.686 48.6709 135.502 48.6726 135.388 48.5637L106.683 21.1437C106.624 21.0871 106.593 21.0169 106.592 20.9348C106.591 20.8528 106.62 20.7817 106.678 20.7239L123.704 3.69867C124.55 2.85249 124.55 1.48052 123.704 0.634634C122.858 -0.211545 121.486 -0.211545 120.639 0.634634L103.614 17.6599C102.726 18.5482 102.245 19.729 102.259 20.9848C102.271 21.9971 102.609 22.9502 103.213 23.7374L95.4211 31.3784L88.0799 27.2842C87.1205 26.7489 86.0328 26.466 84.9341 26.466H64.0758L62.4883 24.8788C61.0132 23.4037 59.2769 22.2793 57.3277 21.5366L51.5536 19.3366L48.8853 16.6684C50.2651 14.3575 49.9681 11.3166 47.9802 9.32897L39.2858 0.634634C38.4397 -0.211545 37.068 -0.211545 36.2215 0.634634C35.3753 1.48081 35.3753 2.85278 36.2215 3.69867L44.9159 12.393C45.5728 13.05 45.5728 14.1192 44.9159 14.7764L27.2461 32.4462C26.3999 33.2924 26.3999 34.6643 27.2461 35.5102C27.6693 35.9332 28.224 36.1449 28.7784 36.1449C29.3328 36.1449 29.8875 35.9335 30.3107 35.5102L45.9547 19.8662L48.8168 22.7283C49.0329 22.9444 49.2924 23.1122 49.5778 23.2211L55.785 25.5861C57.1243 26.0965 58.3198 26.8644 59.3425 27.8657C59.211 27.9764 59.0819 28.0908 58.9588 28.2139L50.7184 36.4549C49.0829 38.0901 48.1824 40.2646 48.1824 42.5772C48.1824 44.8898 49.0829 47.0641 50.7181 48.6995C52.4078 50.3893 54.6182 51.2464 56.8383 51.2464C58.7786 51.2464 60.726 50.5915 62.3389 49.2655L68.5751 44.1387H75.0709L82.4932 51.561C82.9165 51.984 83.4711 52.1957 84.0255 52.1957C84.5799 52.1957 85.1346 51.9843 85.5578 51.561C86.404 50.7149 86.404 49.3429 85.5578 48.497L80.1956 43.1348C80.4103 42.7985 80.5362 42.4004 80.5362 41.972C80.5362 40.7754 79.5664 39.8053 78.3695 39.8053H67.7985C67.2967 39.8053 66.8102 39.9795 66.4225 40.2984L59.5869 45.918C57.8584 47.3385 55.3638 47.2169 53.7824 45.6355C52.9654 44.8185 52.5156 43.7325 52.5156 42.5775C52.5156 41.4225 52.9654 40.3362 53.7824 39.5195L62.0232 31.2785C62.3314 30.9699 62.7416 30.8001 63.1779 30.8001H84.9338C85.2952 30.8001 85.6529 30.8931 85.9686 31.0693L94.0878 35.5975C95.2931 36.2703 96.8257 36.0666 97.8166 35.0983L106.303 26.7749L129.67 49.0947L126.268 52.4962C125.422 53.3424 125.422 54.7143 126.269 55.5602C126.691 55.9835 127.246 56.1949 127.801 56.1949C128.355 56.1949 128.91 55.9835 129.333 55.5602L132.832 52.0608C133.646 52.6638 134.617 52.968 135.59 52.968C136.779 52.968 137.967 52.5187 138.862 51.6234L146.982 43.504C147.828 42.6572 147.828 41.2856 146.982 40.4394Z" fill="black"/>
</svg>
